<svg height="128" width="128" xmlns="http://www.w3.org/2000/svg">
  <rect x="2" y="2" width="124" height="124" rx="14" fill="#363d52" stroke="#212532" stroke-width="4"/>
  <g transform="translate(20, 20)">
    <!-- Sword -->
    <path d="M44 8 L48 8 L48 60 L44 60 Z" fill="#c0c0c0"/>
    <path d="M40 60 L52 60 L52 68 L40 68 Z" fill="#8b4513"/>
    <path d="M36 56 L56 56 L56 60 L36 60 Z" fill="#ffd700"/>
    <path d="M44 4 L48 4 L50 8 L42 8 Z" fill="#c0c0c0"/>
    <!-- Shield -->
    <path d="M12 30 Q12 20 32 20 Q52 20 52 30 L52 55 Q32 75 32 75 Q32 75 12 55 Z" fill="#2e5090" stroke="#1a3050" stroke-width="2"/>
    <path d="M22 30 L42 30 L42 50 L32 60 L22 50 Z" fill="#ffd700"/>
  </g>
  <text x="64" y="105" font-family="Arial, sans-serif" font-size="14" font-weight="bold" fill="#ffffff" text-anchor="middle">TURN RPG</text>
</svg>
